<?xml version="1.0" encoding="UTF-8" standalone="no"?>
<!-- Created with Inkscape (http://www.inkscape.org/) -->

<svg
   width="101.13535mm"
   height="91.938499mm"
   viewBox="0 0 101.13535 91.938499"
   version="1.1"
   id="svg5"
   inkscape:version="1.2.2 (b0a8486541, 2022-12-01)"
   sodipodi:docname="favicon.svg"
   xmlns:inkscape="http://www.inkscape.org/namespaces/inkscape"
   xmlns:sodipodi="http://sodipodi.sourceforge.net/DTD/sodipodi-0.dtd"
   xmlns="http://www.w3.org/2000/svg"
   xmlns:svg="http://www.w3.org/2000/svg">
  <sodipodi:namedview
     id="namedview7"
     pagecolor="#ffffff"
     bordercolor="#000000"
     borderopacity="0.25"
     inkscape:showpageshadow="2"
     inkscape:pageopacity="0.0"
     inkscape:pagecheckerboard="0"
     inkscape:deskcolor="#d1d1d1"
     inkscape:document-units="mm"
     showgrid="false"
     showguides="true"
     inkscape:zoom="0.48733709"
     inkscape:cx="-87.208631"
     inkscape:cy="260.59991"
     inkscape:window-width="1366"
     inkscape:window-height="711"
     inkscape:window-x="0"
     inkscape:window-y="25"
     inkscape:window-maximized="1"
     inkscape:current-layer="layer1" />
  <defs
     id="defs2">
    <inkscape:path-effect
       effect="bspline"
       id="path-effect1563"
       is_visible="true"
       lpeversion="1"
       weight="33.333333"
       steps="2"
       helper_size="0"
       apply_no_weight="true"
       apply_with_weight="true"
       only_selected="false" />
    <inkscape:path-effect
       effect="bspline"
       id="path-effect1496"
       is_visible="true"
       lpeversion="1"
       weight="33.333333"
       steps="2"
       helper_size="0"
       apply_no_weight="true"
       apply_with_weight="true"
       only_selected="false" />
    <inkscape:path-effect
       effect="bspline"
       id="path-effect689"
       is_visible="true"
       lpeversion="1"
       weight="33.333333"
       steps="2"
       helper_size="0"
       apply_no_weight="true"
       apply_with_weight="true"
       only_selected="false" />
  </defs>
  <g
     inkscape:label="Camada 1"
     inkscape:groupmode="layer"
     id="layer1"
     transform="translate(-52.873301,-116.34403)">
    <path
       style="opacity:1;fill:#171a1d;fill-opacity:1;stroke:none;stroke-width:0.264583"
       d="m 110.27546,117.64523 c 2.60711,-1.8468 6.23193,-1.51129 9.40881,-0.33534 3.17688,1.17594 5.90563,3.19203 8.50752,4.02237 2.60189,0.83033 5.07678,0.47513 7.31611,1.28401 2.23933,0.80888 4.24278,2.78146 4.36762,4.70776 0.12485,1.9263 -1.62869,3.8064 -0.34157,5.47981 1.28713,1.67342 5.79152,3.19998 7.51997,5.78162 1.72845,2.58165 0.7698,6.24815 1.48118,10.55668 0.71138,4.30852 3.09236,9.25835 5.47355,14.2086 -2.05583,-0.54458 -4.11134,-1.08908 -5.24452,1.61078 -1.13319,2.69987 -1.38522,9.82638 -1.06628,12.77131 0.31893,2.94493 1.52527,4.63317 1.55322,6.65164 0.0279,2.01847 -0.92205,4.64729 -2.66969,5.98913 -1.74764,1.34184 -4.29311,1.39677 -4.69373,2.4894 -0.40062,1.09262 1.34361,3.22255 0.84654,5.53584 -0.49707,2.31329 -3.23514,4.81007 -6.01127,6.78945 -2.77613,1.97939 -5.59024,3.44129 -8.46526,3.0222 -2.87503,-0.41909 -5.81101,-2.71941 -8.98799,-2.96345 -3.17698,-0.24404 -6.59458,1.56845 -9.93239,1.45426 -3.33782,-0.1142 -6.59585,-2.15528 -10.170187,-2.36093 -3.574333,-0.20564 -7.46455,1.42437 -10.556923,0.44361 -3.092372,-0.98077 -5.386796,-4.57256 -8.45254,-4.79412 -3.065744,-0.22157 -6.902429,2.92738 -10.221887,2.79307 -3.319459,-0.1343 -6.121706,-3.55209 -6.647839,-6.77411 -0.526134,-3.22202 1.22411,-6.24787 0.345546,-9.1583 -0.878564,-2.91042 -4.386171,-5.70539 -5.340385,-8.12354 -0.954214,-2.41815 0.645292,-4.45915 1.097391,-6.75357 0.452098,-2.29441 -0.243327,-4.84239 -2.013939,-6.72914 -1.770612,-1.88676 -4.616524,-3.11202 -4.499731,-4.84612 0.116793,-1.7341 3.196495,-3.97675 4.831082,-6.41402 1.634588,-2.43728 1.824055,-5.0693 2.714999,-7.03876 0.890944,-1.96947 2.483248,-3.27599 3.113072,-5.70315 0.629824,-2.42717 0.297149,-5.97513 1.719011,-7.7261 1.421862,-1.75097 4.5979,-1.70461 6.185816,-3.61185 1.587916,-1.90724 1.587916,-5.7682 3.370458,-6.96499 1.782542,-1.19679 5.347162,0.27075 6.968821,-0.71553 1.62166,-0.98629 1.30059,-4.42645 2.741384,-5.46944 1.440794,-1.043 4.643041,0.31134 7.20613,0.38841 2.563089,0.0771 4.48713,-1.12289 6.420243,0.22337 1.933108,1.34626 4.225478,5.94048 6.342768,10.18383 1.58892,-4.02902 3.17779,-8.05789 5.78489,-9.90469 z"
       id="path687"
       inkscape:path-effect="#path-effect689"
       inkscape:original-d="m 109.25733,115.46287 c 3.62522,0.3358 7.25004,0.67131 10.87466,1.00657 2.72913,2.01644 5.45788,4.03253 8.18643,6.0484 2.4753,-0.35495 4.95019,-0.71015 7.42496,-1.06564 2.00384,1.97296 4.0073,3.94553 6.01061,5.91795 -1.75335,1.88044 -3.50689,3.76053 -5.26073,5.6404 4.4163,1.20563 8.83216,2.99342 13.24785,4.48974 -0.95843,3.6669 -1.91708,7.3334 -2.87602,10.99971 2.3815,4.95061 7.14356,14.85074 7.14356,14.85074 0,0 -4.11139,-1.0889 -6.16748,-1.63375 -0.20995,5.94441 -0.46198,13.07092 -0.63065,17.83243 0.80631,1.12831 2.01265,2.81655 3.01858,4.22442 -0.94977,2.62921 -1.89976,5.25804 -2.85004,7.88667 -2.54531,0.0552 -5.09078,0.11013 -7.63656,0.1648 1.74456,2.13029 3.48879,4.26022 5.23279,6.38994 -2.73792,2.49715 -5.47599,4.99394 -8.21438,7.49051 -2.81396,1.46223 -5.62806,2.92414 -8.44249,4.38581 -2.93582,-2.30014 -5.87179,-4.60046 -8.80809,-6.90108 -3.41747,1.81283 -6.83507,3.62532 -10.253,5.43758 -3.25791,-2.0409 -6.51595,-4.08198 -9.774323,-6.12337 -3.890111,1.63035 -7.78033,3.26036 -11.67089,4.89014 -2.294252,-3.59167 -4.588679,-7.18346 -6.883416,-10.7756 -3.836577,3.14934 -7.673266,6.29828 -11.510295,9.44703 -2.802094,-3.41766 -5.604341,-6.83545 -8.406906,-10.25357 1.750579,-3.02572 3.500827,-6.05157 5.250842,-9.07775 -3.507481,-2.79482 -7.015089,-5.58979 -10.52303,-8.38508 1.599833,-2.04081 3.199337,-4.08181 4.798608,-6.12311 -0.695187,-2.54781 -1.39061,-5.09579 -2.086314,-7.64408 -2.845757,-1.22504 -5.691669,-2.4503 -8.5379,-3.67585 3.080089,-2.24248 6.159791,-4.48513 9.239292,-6.72809 0.189738,-2.63187 0.379206,-5.26389 0.568415,-7.89624 1.592633,-1.30631 3.184938,-2.61283 4.77701,-3.91964 -0.332423,-3.54783 -0.665096,-7.09579 -0.998043,-10.64408 3.176429,0.0466 6.352466,0.093 9.528302,0.13909 2.65e-4,-3.86084 2.65e-4,-7.7218 0,-11.5831 3.565028,1.46786 7.12965,2.93539 10.694077,4.40269 -0.320818,-3.44002 -0.641884,-6.88018 -0.963226,-10.32067 3.202636,1.35465 6.40488,2.70899 9.606923,4.06308 1.924383,-1.19976 3.848425,-2.39973 5.772242,-3.59999 1.942322,3.89242 6.351872,12.73004 6.351872,12.73004 0,0 3.1781,-8.05777 4.76676,-12.08705 z"
       sodipodi:nodetypes="ccccccccccccccccccccccccccccccccccccccccc" />
    <circle
       style="fill:#cb4c28;fill-opacity:1;stroke-width:0.264583"
       id="path111"
       cx="106.38559"
       cy="160.90683"
       r="33.356907" />
    <ellipse
       style="opacity:1;fill:#300303;fill-opacity:1;stroke-width:0.0250007"
       id="circle329"
       cx="91.495819"
       cy="154.17874"
       rx="2.3826363"
       ry="4.1696134" />
    <ellipse
       style="opacity:1;fill:#300303;fill-opacity:1;stroke-width:0.0250007"
       id="ellipse331"
       cx="120.30556"
       cy="154.17874"
       rx="2.3826363"
       ry="4.1696134" />
    <path
       style="opacity:1;fill:none;stroke:#9101ae;stroke-width:1.90553;stroke-linecap:round;stroke-dasharray:none;stroke-opacity:1"
       d="m 104.49057,154.17874 c 0,0 0.0801,-2.03763 2.3454,-2.05548 2.26531,-0.0179 2.42136,2.05548 2.42136,2.05548"
       id="path526"
       sodipodi:nodetypes="czc" />
    <path
       style="opacity:1;fill:none;stroke:#171a1d;stroke-width:1.27053;stroke-linecap:round;stroke-dasharray:none;stroke-opacity:1"
       d="m 117.53494,145.79156 c 0,0 3.0496,-1.67152 6.00602,-0.38303 2.95643,1.2885 3.36057,3.90157 3.36057,3.90157"
       id="path1632"
       sodipodi:nodetypes="czc" />
    <path
       style="opacity:1;fill:#171a1d;fill-opacity:1;stroke:none;stroke-width:0.264583"
       d="m 104.49057,127.54992 c 0.16983,2.54208 0.33964,5.08388 -0.82792,6.74211 -1.16755,1.65824 -3.672521,2.43322 -4.758132,2.24513 -1.08561,-0.18808 -0.751612,-1.33941 -2.363678,-1.33952 -1.612066,-1e-4 -5.170276,1.15124 -6.067902,2.80802 -0.897625,1.65678 0.865265,3.81856 -0.39263,4.26192 -1.257894,0.44335 -5.536514,-0.83151 -8.536862,0.50272 -3.000349,1.33424 -4.721898,5.27742 -4.575766,8.73516 0.146132,3.45775 2.159635,6.42968 1.814414,7.91552 -0.34522,1.48585 -3.049156,1.48585 -3.298869,4.80899 -0.249712,3.32313 1.954922,9.96881 0.922801,12.75462 -1.03212,2.78581 -5.30108,1.71189 -7.994988,-2.73233 -2.693908,-4.44423 -3.81237,-12.25865 -1.173591,-20.79071 2.638779,-8.53207 9.034639,-17.781 14.827076,-23.09952 5.792436,-5.31852 10.980892,-6.70628 14.618038,-6.5197 3.637149,0.18659 5.722699,1.94719 7.808009,3.70759"
       id="path1561"
       inkscape:path-effect="#path-effect1563"
       inkscape:original-d="m 104.49057,127.54992 c 0.17007,2.54206 0.33988,5.08386 0.50943,7.62539 -2.5048,0.77528 -5.009774,1.55025 -7.515055,2.32498 0.334277,-1.15112 0.668276,-2.30245 1.002019,-3.45408 -3.558087,1.15165 -7.116299,2.30298 -10.674847,3.45408 1.763226,2.16213 3.526115,4.32391 5.288777,6.48547 -4.278529,-1.27466 -8.557151,-2.54952 -12.836125,-3.82468 -1.721353,3.9436 -3.442901,7.88678 -5.164749,11.82977 2.01385,2.97232 4.027353,5.94425 6.040634,8.91598 -2.70378,2.6e-4 -5.407716,2.6e-4 -8.111972,0 2.20499,6.64622 4.409625,13.2919 6.614041,19.93746 -4.268864,-1.0737 -8.537824,-2.14762 -12.80713,-3.22183 -1.11824,-7.81446 -2.236703,-15.62888 -3.355451,-23.44372 6.396384,-9.24905 12.792247,-18.49798 19.187975,-27.74737 5.188926,-1.38755 10.377381,-2.77531 15.565675,-4.16336 2.085898,1.76093 4.171448,3.52154 6.256778,5.28191" />
    <path
       style="opacity:1;fill:none;stroke:#171a1d;stroke-width:1.27053;stroke-linecap:round;stroke-dasharray:none;stroke-opacity:1"
       d="m 96.212689,145.79156 c 0,0 -3.0496,-1.67152 -6.00602,-0.38303 -2.95643,1.2885 -3.36057,3.90157 -3.36057,3.90157"
       id="path1634"
       sodipodi:nodetypes="czc" />
    <path
       style="color:#000000;fill:#171a1d;stroke-linecap:round;-inkscape-stroke:none"
       d="m 105.52148,173.33398 c -2.28189,0.26385 -4.59903,1.29817 -7.738277,2.88672 a 0.63526458,0.63526458 0 0 0 -0.279297,0.85352 0.63526458,0.63526458 0 0 0 0.853516,0.28125 c 3.110638,-1.57408 5.313428,-2.52885 7.310548,-2.75977 1.99712,-0.23092 3.85063,0.21599 6.42969,1.5918 a 0.63526458,0.63526458 0 0 0 0.85937,-0.26172 0.63526458,0.63526458 0 0 0 -0.26172,-0.85937 c -2.70601,-1.44354 -4.89193,-1.99627 -7.17383,-1.73243 z"
       id="path1565" />
    <circle
       style="opacity:0.5;fill:#9101ae;fill-opacity:0.606369;stroke-width:0.132291"
       id="circle275"
       cx="87.812119"
       cy="154.17874"
       r="16.678453" />
    <path
       style="opacity:1;fill:#171a1d;fill-opacity:1;stroke:none;stroke-width:0.264583"
       d="m 103.47201,129.17458 c -0.81358,3.20239 2.48608,7.28113 5.79818,9.76606 3.31209,2.48492 6.63628,3.37634 9.96085,4.26787 -2.60499,-3.74179 -5.20977,-7.48328 -4.5452,-9.33345 0.66457,-1.85018 4.5985,-1.80843 7.41552,0.15079 2.81701,1.95921 4.51709,5.83542 5.60522,5.86089 1.08814,0.0255 1.56445,-3.79965 3.6549,-2.42394 2.09046,1.37571 5.79469,7.95198 5.92996,14.99692 0.13526,7.04493 -3.29815,14.55831 -4.33136,20.37972 -1.03321,5.82142 0.33363,9.95037 1.57395,11.57229 1.24032,1.62192 2.35413,0.73712 4.97137,-4.53169 2.61724,-5.26881 6.73781,-14.92135 5.9991,-23.40811 -0.73871,-8.48676 -6.33684,-15.80741 -11.91958,-21.23348 -5.58273,-5.42607 -11.14956,-8.95702 -14.38799,-10.96112 -3.23843,-2.0041 -4.1477,-2.48084 -7.0661,-1.55614 -2.91839,0.9247 -7.84523,3.25099 -8.65882,6.45339 z"
       id="path1494"
       inkscape:path-effect="#path-effect1496"
       inkscape:original-d="m 99.358913,128.29841 c 3.299547,4.07853 6.599207,8.15728 9.898417,12.23552 3.3249,0.89181 9.97371,2.67458 9.97371,2.67458 0,0 -5.20972,-7.48332 -7.81498,-11.22538 3.93435,0.042 7.86828,0.0838 11.80202,0.12525 1.70041,3.87663 3.40049,7.75284 5.10034,11.62886 0.47659,-3.825 0.9529,-7.65011 1.42896,-11.47556 3.70465,6.57678 7.40888,13.15305 11.11292,19.72917 -3.43328,7.51395 -6.86669,15.02732 -10.30043,22.54059 1.36716,4.12937 2.734,8.25832 4.1006,12.38708 1.11411,-0.88458 2.22792,-1.76938 3.34148,-2.65447 4.12101,-9.65268 8.24158,-19.30523 12.36198,-28.95824 -5.5981,-7.32067 -11.19623,-14.64132 -16.79475,-21.96238 -5.56704,-3.53098 -11.13387,-7.06193 -16.70158,-10.59354 -0.90915,-0.47656 -1.81842,-0.9533 -2.72812,-1.4304 -4.92689,2.32672 -9.85373,4.65302 -14.780567,6.97892 z"
       sodipodi:nodetypes="cccccccccccccccc" />
    <circle
       style="opacity:0.5;fill:#9101ae;fill-opacity:0.606369;stroke-width:0.132291"
       id="circle165"
       cx="125.93578"
       cy="154.17874"
       r="16.678453" />
  </g>
</svg>
